<mxfile host="65bd71144e">
    <diagram id="Ox2sK-YB4mRxsYYxqi7S" name="第 1 页">
        <mxGraphModel dx="1182" dy="997" grid="1" gridSize="10" guides="1" tooltips="1" connect="1" arrows="1" fold="1" page="1" pageScale="1" pageWidth="827" pageHeight="1169" math="0" shadow="0">
            <root>
                <mxCell id="0"/>
                <mxCell id="1" parent="0"/>
                <mxCell id="12" style="edgeStyle=none;html=1;entryX=0.5;entryY=0;entryDx=0;entryDy=0;fontSize=25;" edge="1" parent="1" source="2" target="3">
                    <mxGeometry relative="1" as="geometry"/>
                </mxCell>
                <mxCell id="2" value="&lt;font style=&quot;font-size: 25px;&quot;&gt;Memory&lt;/font&gt;" style="rounded=0;whiteSpace=wrap;html=1;fontSize=25;" vertex="1" parent="1">
                    <mxGeometry x="300" y="30" width="120" height="60" as="geometry"/>
                </mxCell>
                <mxCell id="13" style="edgeStyle=none;html=1;entryX=0.5;entryY=0;entryDx=0;entryDy=0;fontSize=25;" edge="1" parent="1" source="3" target="4">
                    <mxGeometry relative="1" as="geometry"/>
                </mxCell>
                <mxCell id="3" value="Decoder&lt;br&gt;&lt;br&gt;&lt;br&gt;&lt;br&gt;" style="rounded=0;whiteSpace=wrap;html=1;fontSize=25;" vertex="1" parent="1">
                    <mxGeometry x="250" y="150" width="220" height="160" as="geometry"/>
                </mxCell>
                <mxCell id="14" value="&lt;font style=&quot;font-size: 25px;&quot;&gt;Issue&lt;/font&gt;" style="edgeStyle=none;html=1;fontSize=25;" edge="1" parent="1" source="4" target="5">
                    <mxGeometry relative="1" as="geometry"/>
                </mxCell>
                <mxCell id="15" value="&lt;font style=&quot;font-size: 25px;&quot;&gt;Issue&lt;/font&gt;" style="edgeStyle=none;html=1;entryX=0.5;entryY=0;entryDx=0;entryDy=0;fontSize=25;" edge="1" parent="1" source="4" target="7">
                    <mxGeometry relative="1" as="geometry"/>
                </mxCell>
                <mxCell id="4" value="Instruction&lt;br style=&quot;font-size: 25px;&quot;&gt;quene" style="rounded=0;whiteSpace=wrap;html=1;fontSize=25;" vertex="1" parent="1">
                    <mxGeometry x="300" y="220" width="120" height="60" as="geometry"/>
                </mxCell>
                <mxCell id="16" value="Write" style="edgeStyle=none;html=1;entryX=0.5;entryY=0;entryDx=0;entryDy=0;fontSize=25;" edge="1" parent="1" source="5" target="6">
                    <mxGeometry relative="1" as="geometry"/>
                </mxCell>
                <mxCell id="19" style="edgeStyle=none;html=1;entryX=1;entryY=0.5;entryDx=0;entryDy=0;fontSize=25;" edge="1" parent="1" source="5" target="9">
                    <mxGeometry relative="1" as="geometry"/>
                </mxCell>
                <mxCell id="5" value="ROB" style="rounded=0;whiteSpace=wrap;html=1;fontSize=25;" vertex="1" parent="1">
                    <mxGeometry x="300" y="400" width="120" height="60" as="geometry"/>
                </mxCell>
                <mxCell id="6" value="Regs" style="rounded=0;whiteSpace=wrap;html=1;fontSize=25;" vertex="1" parent="1">
                    <mxGeometry x="300" y="525" width="120" height="60" as="geometry"/>
                </mxCell>
                <mxCell id="17" style="edgeStyle=none;html=1;entryX=0.5;entryY=0;entryDx=0;entryDy=0;fontSize=25;" edge="1" parent="1" source="7" target="8">
                    <mxGeometry relative="1" as="geometry"/>
                </mxCell>
                <mxCell id="7" value="RS" style="rounded=0;whiteSpace=wrap;html=1;fontSize=25;" vertex="1" parent="1">
                    <mxGeometry x="510" y="400" width="120" height="60" as="geometry"/>
                </mxCell>
                <mxCell id="18" value="Exe" style="edgeStyle=none;html=1;fontSize=25;" edge="1" parent="1" source="8" target="7">
                    <mxGeometry relative="1" as="geometry">
                        <mxPoint x="570" y="470" as="targetPoint"/>
                    </mxGeometry>
                </mxCell>
                <mxCell id="8" value="ALU" style="rounded=0;whiteSpace=wrap;html=1;fontSize=25;" vertex="1" parent="1">
                    <mxGeometry x="510" y="525" width="120" height="60" as="geometry"/>
                </mxCell>
                <mxCell id="9" value="LSB" style="rounded=0;whiteSpace=wrap;html=1;fontSize=25;" vertex="1" parent="1">
                    <mxGeometry x="60" y="270" width="120" height="60" as="geometry"/>
                </mxCell>
                <mxCell id="27" style="edgeStyle=none;html=1;entryX=0.006;entryY=0.629;entryDx=0;entryDy=0;entryPerimeter=0;fontSize=25;" edge="1" parent="1" source="10" target="5">
                    <mxGeometry relative="1" as="geometry"/>
                </mxCell>
                <mxCell id="10" value="CDB" style="rounded=0;whiteSpace=wrap;html=1;fontSize=25;" vertex="1" parent="1">
                    <mxGeometry x="90" y="380" width="60" height="270" as="geometry"/>
                </mxCell>
                <mxCell id="25" value="" style="endArrow=classic;startArrow=classic;html=1;fontSize=25;entryX=0;entryY=0.5;entryDx=0;entryDy=0;exitX=0.5;exitY=0;exitDx=0;exitDy=0;" edge="1" parent="1" source="9" target="2">
                    <mxGeometry width="50" height="50" relative="1" as="geometry">
                        <mxPoint x="390" y="500" as="sourcePoint"/>
                        <mxPoint x="440" y="450" as="targetPoint"/>
                    </mxGeometry>
                </mxCell>
                <mxCell id="26" value="commit" style="curved=1;endArrow=classic;html=1;fontSize=25;entryX=0.75;entryY=1;entryDx=0;entryDy=0;exitX=1;exitY=0.5;exitDx=0;exitDy=0;" edge="1" parent="1" source="7" target="10">
                    <mxGeometry width="50" height="50" relative="1" as="geometry">
                        <mxPoint x="390" y="500" as="sourcePoint"/>
                        <mxPoint x="440" y="450" as="targetPoint"/>
                        <Array as="points">
                            <mxPoint x="740" y="700"/>
                            <mxPoint x="620" y="800"/>
                            <mxPoint x="470" y="850"/>
                            <mxPoint x="240" y="840"/>
                            <mxPoint x="150" y="790"/>
                        </Array>
                    </mxGeometry>
                </mxCell>
                <mxCell id="28" value="commit" style="curved=1;endArrow=classic;html=1;fontSize=25;exitX=0.5;exitY=1;exitDx=0;exitDy=0;entryX=0.75;entryY=1;entryDx=0;entryDy=0;" edge="1" parent="1" source="8" target="10">
                    <mxGeometry width="50" height="50" relative="1" as="geometry">
                        <mxPoint x="370" y="770" as="sourcePoint"/>
                        <mxPoint x="420" y="720" as="targetPoint"/>
                        <Array as="points">
                            <mxPoint x="490" y="690"/>
                            <mxPoint x="420" y="730"/>
                            <mxPoint x="330" y="730"/>
                        </Array>
                    </mxGeometry>
                </mxCell>
            </root>
        </mxGraphModel>
    </diagram>
</mxfile>